HIERARCHY
ROOT Hips
{
	OFFSET 0.000000 71.427986 0.000000
	CHANNELS 6 Xposition Yposition Zposition Xrotation Yrotation Zrotation
	JOINT Pelvis
	{
		OFFSET 0.000000 0.000000 0.000000
		CHANNELS 3 Xrotation Yrotation Zrotation
		JOINT LeftUpLeg
		{
			OFFSET 6.797100 -2.508499 -1.318700
			CHANNELS 3 Xrotation Yrotation Zrotation
			JOINT LeftLeg
			{
				OFFSET 0.069008 -29.241863 0.690200
				CHANNELS 3 Xrotation Yrotation Zrotation
				JOINT LeftFoot
				{
					OFFSET -0.069008 -29.568123 -0.266800
					CHANNELS 3 Xrotation Yrotation Zrotation
					JOINT LeftToeBase
					{
						OFFSET 3.145500 -8.631000 16.059900
						CHANNELS 3 Xrotation Yrotation Zrotation
						End Site
						{
							OFFSET 0.000000 18.501587 0.000000
						}
					}
				}
			}
			JOINT Left_ShortSleeve
			{
				OFFSET 0.265923 -10.480953 1.153800
				CHANNELS 3 Xrotation Yrotation Zrotation
				End Site
				{
					OFFSET 1.725763 19.823879 0.000000
				}
			}
		}
		JOINT RightUpLeg
		{
			OFFSET -6.797100 -2.508499 -1.318700
			CHANNELS 3 Xrotation Yrotation Zrotation
			JOINT RightLeg
			{
				OFFSET -0.082453 -29.241932 0.688000
				CHANNELS 3 Xrotation Yrotation Zrotation
				JOINT RightFoot
				{
					OFFSET 0.082453 -29.568058 -0.264600
					CHANNELS 3 Xrotation Yrotation Zrotation
					JOINT RightToeBase
					{
						OFFSET -3.115300 -8.682800 16.113400
						CHANNELS 3 Xrotation Yrotation Zrotation
						End Site
						{
							OFFSET 0.000000 18.567114 0.000000
						}
					}
				}
			}
			JOINT Right_ShortSleeve
			{
				OFFSET -0.265923 -10.480953 1.153800
				CHANNELS 3 Xrotation Yrotation Zrotation
				End Site
				{
					OFFSET -1.725766 19.823910 0.000000
				}
			}
		}
	}
	JOINT Spine
	{
		OFFSET 0.000000 13.368103 0.470500
		CHANNELS 3 Xrotation Yrotation Zrotation
		JOINT Spine1
		{
			OFFSET 0.147000 13.837402 0.538800
			CHANNELS 3 Xrotation Yrotation Zrotation
			JOINT Spine2
			{
				OFFSET 0.168000 16.242897 -1.435500
				CHANNELS 3 Xrotation Yrotation Zrotation
				JOINT Neck
				{
					OFFSET 0.217200 18.631500 -1.679100
					CHANNELS 3 Xrotation Yrotation Zrotation
					JOINT Head
					{
						OFFSET 0.000000 6.599396 1.385900
						CHANNELS 3 Xrotation Yrotation Zrotation
						JOINT Hat
						{
							OFFSET -0.532200 27.220596 -10.096100
							CHANNELS 3 Xrotation Yrotation Zrotation
							End Site
							{
								OFFSET 0.000000 22.029861 0.000000
							}
						}
						JOINT HairD
						{
							OFFSET -10.777400 17.437393 -1.325900
							CHANNELS 3 Xrotation Yrotation Zrotation
							JOINT HairD1
							{
								OFFSET -3.290299 -11.051193 1.062200
								CHANNELS 3 Xrotation Yrotation Zrotation
								End Site
								{
									OFFSET 0.000000 11.579437 0.000000
								}
							}
						}
						JOINT HairB
						{
							OFFSET -10.777400 17.437393 1.467900
							CHANNELS 3 Xrotation Yrotation Zrotation
							JOINT HairB1
							{
								OFFSET -1.561200 -12.956299 3.590200
								CHANNELS 3 Xrotation Yrotation Zrotation
								End Site
								{
									OFFSET 0.000000 13.534866 0.000000
								}
							}
						}
						JOINT HairA
						{
							OFFSET 9.713100 17.437393 1.467900
							CHANNELS 3 Xrotation Yrotation Zrotation
							JOINT HairA1
							{
								OFFSET 1.561200 -12.956299 3.590200
								CHANNELS 3 Xrotation Yrotation Zrotation
								End Site
								{
									OFFSET 0.000000 13.534866 0.000000
								}
							}
						}
						JOINT HairC
						{
							OFFSET 9.713100 17.437393 -1.325900
							CHANNELS 3 Xrotation Yrotation Zrotation
							JOINT HairC1
							{
								OFFSET 3.290300 -11.051193 1.062200
								CHANNELS 3 Xrotation Yrotation Zrotation
								End Site
								{
									OFFSET 0.000000 11.579437 0.000000
								}
							}
						}
					}
				}
				JOINT LeftShoulder
				{
					OFFSET 5.101800 15.108002 -2.763700
					CHANNELS 3 Xrotation Yrotation Zrotation
					JOINT LeftArm
					{
						OFFSET 9.825497 2.506317 -1.597400
						CHANNELS 3 Xrotation Yrotation Zrotation
						JOINT LeftForeArm
						{
							OFFSET 21.966244 0.000000 0.000000
							CHANNELS 3 Xrotation Yrotation Zrotation
							JOINT LeftHand
							{
								OFFSET 33.879036 0.000000 0.000000
								CHANNELS 3 Xrotation Yrotation Zrotation
								JOINT LeftHandThumb1
								{
									OFFSET 6.715286 -2.359680 3.363841
									CHANNELS 3 Xrotation Yrotation Zrotation
									JOINT LeftHandThumb2
									{
										OFFSET 2.507072 -1.447464 1.447461
										CHANNELS 3 Xrotation Yrotation Zrotation
										JOINT LeftHandThumb3
										{
											OFFSET 2.898338 -1.673355 1.673357
											CHANNELS 3 Xrotation Yrotation Zrotation
											End Site
											{
												OFFSET -0.295959 3.727692 -0.131651
											}
										}
									}
								}
								JOINT LeftHandIndex1
								{
									OFFSET 14.190811 -0.254547 3.840278
									CHANNELS 3 Xrotation Yrotation Zrotation
									JOINT LeftHandIndex2
									{
										OFFSET 3.551727 0.000000 -0.000000
										CHANNELS 3 Xrotation Yrotation Zrotation
										JOINT LeftHandIndex3
										{
											OFFSET 2.894196 0.000000 0.000000
											CHANNELS 3 Xrotation Yrotation Zrotation
											End Site
											{
												OFFSET -1.000603 2.690872 0.366626
											}
										}
									}
								}
								JOINT LeftHandMiddle1
								{
									OFFSET 13.776489 0.000000 0.000000
									CHANNELS 3 Xrotation Yrotation Zrotation
									JOINT LeftHandMiddle2
									{
										OFFSET 3.438232 0.000000 0.000000
										CHANNELS 3 Xrotation Yrotation Zrotation
										JOINT LeftHandMiddle3
										{
											OFFSET 3.691551 0.000000 0.000000
											CHANNELS 3 Xrotation Yrotation Zrotation
											End Site
											{
												OFFSET -1.082298 3.499527 0.457670
											}
										}
									}
								}
								JOINT LeftHandRing1
								{
									OFFSET 13.966164 -0.268127 -3.067488
									CHANNELS 3 Xrotation Yrotation Zrotation
									JOINT LeftHandRing2
									{
										OFFSET 3.162567 0.000000 0.000000
										CHANNELS 3 Xrotation Yrotation Zrotation
										JOINT LeftHandRing3
										{
											OFFSET 3.324348 0.000000 0.000000
											CHANNELS 3 Xrotation Yrotation Zrotation
											End Site
											{
												OFFSET -0.861900 3.184998 0.405154
											}
										}
									}
								}
								JOINT LeftHandPinky1
								{
									OFFSET 13.131393 -0.168503 -5.746925
									CHANNELS 3 Xrotation Yrotation Zrotation
									JOINT LeftHandPinky2
									{
										OFFSET 2.849182 0.000000 0.000000
										CHANNELS 3 Xrotation Yrotation Zrotation
										JOINT LeftHandPinky3
										{
											OFFSET 2.805038 0.000000 0.000000
											CHANNELS 3 Xrotation Yrotation Zrotation
											End Site
											{
												OFFSET -0.882500 2.642609 0.325652
											}
										}
									}
								}
							}
							JOINT Left_Sleeve
							{
								OFFSET 6.592125 -0.646545 0.805568
								CHANNELS 3 Xrotation Yrotation Zrotation
								End Site
								{
									OFFSET -0.000179 20.275787 -0.000000
								}
							}
						}
					}
				}
				JOINT RightShoulder
				{
					OFFSET -5.731700 15.108002 -2.763700
					CHANNELS 3 Xrotation Yrotation Zrotation
					JOINT RightArm
					{
						OFFSET -9.825497 2.506317 -1.597400
						CHANNELS 3 Xrotation Yrotation Zrotation
						JOINT RightForeArm
						{
							OFFSET -21.966242 0.000000 0.000000
							CHANNELS 3 Xrotation Yrotation Zrotation
							JOINT RightHand
							{
								OFFSET -33.879032 0.000000 0.000000
								CHANNELS 3 Xrotation Yrotation Zrotation
								JOINT RightHandThumb1
								{
									OFFSET -6.715286 -2.359680 3.363841
									CHANNELS 3 Xrotation Yrotation Zrotation
									JOINT RightHandThumb2
									{
										OFFSET -2.507072 -1.447464 1.447461
										CHANNELS 3 Xrotation Yrotation Zrotation
										JOINT RightHandThumb3
										{
											OFFSET -2.898338 -1.673355 1.673357
											CHANNELS 3 Xrotation Yrotation Zrotation
											End Site
											{
												OFFSET 0.295959 3.727692 -0.131651
											}
										}
									}
								}
								JOINT RightHandIndex1
								{
									OFFSET -14.190811 -0.254547 3.840278
									CHANNELS 3 Xrotation Yrotation Zrotation
									JOINT RightHandIndex2
									{
										OFFSET -3.551727 0.000000 -0.000000
										CHANNELS 3 Xrotation Yrotation Zrotation
										JOINT RightHandIndex3
										{
											OFFSET -2.894196 0.000000 0.000000
											CHANNELS 3 Xrotation Yrotation Zrotation
											End Site
											{
												OFFSET 1.000603 2.690872 0.366626
											}
										}
									}
								}
								JOINT RightHandMiddle1
								{
									OFFSET -13.776489 0.000000 0.000000
									CHANNELS 3 Xrotation Yrotation Zrotation
									JOINT RightHandMiddle2
									{
										OFFSET -3.438232 0.000000 0.000000
										CHANNELS 3 Xrotation Yrotation Zrotation
										JOINT RightHandMiddle3
										{
											OFFSET -3.691551 0.000000 0.000000
											CHANNELS 3 Xrotation Yrotation Zrotation
											End Site
											{
												OFFSET 1.082298 3.499527 0.457670
											}
										}
									}
								}
								JOINT RightHandRing1
								{
									OFFSET -13.966164 -0.268127 -3.067488
									CHANNELS 3 Xrotation Yrotation Zrotation
									JOINT RightHandRing2
									{
										OFFSET -3.162567 0.000000 0.000000
										CHANNELS 3 Xrotation Yrotation Zrotation
										JOINT RightHandRing3
										{
											OFFSET -3.324348 0.000000 0.000000
											CHANNELS 3 Xrotation Yrotation Zrotation
											End Site
											{
												OFFSET 0.861900 3.184998 0.405154
											}
										}
									}
								}
								JOINT RightHandPinky1
								{
									OFFSET -13.131393 -0.168503 -5.746925
									CHANNELS 3 Xrotation Yrotation Zrotation
									JOINT RightHandPinky2
									{
										OFFSET -2.849182 0.000000 0.000000
										CHANNELS 3 Xrotation Yrotation Zrotation
										JOINT RightHandPinky3
										{
											OFFSET -2.805038 0.000000 0.000000
											CHANNELS 3 Xrotation Yrotation Zrotation
											End Site
											{
												OFFSET 0.882500 2.642609 0.325652
											}
										}
									}
								}
							}
							JOINT Right_Sleeve
							{
								OFFSET -6.592125 -0.646545 0.805568
								CHANNELS 3 Xrotation Yrotation Zrotation
								End Site
								{
									OFFSET 0.000179 20.275787 -0.000000
								}
							}
						}
					}
				}
				JOINT Bind_Right_JacketString
				{
					OFFSET -3.534800 11.969597 7.200700
					CHANNELS 3 Xrotation Yrotation Zrotation
					JOINT Bind_Right_JacketString1
					{
						OFFSET -0.319900 -6.102600 2.794100
						CHANNELS 3 Xrotation Yrotation Zrotation
						End Site
						{
							OFFSET 0.000000 6.719452 0.000000
						}
					}
				}
				JOINT Bind_Left_JacketString
				{
					OFFSET 2.904800 11.969597 7.200700
					CHANNELS 3 Xrotation Yrotation Zrotation
					JOINT Bind_Left_JacketString1
					{
						OFFSET 0.364800 -5.904503 3.186800
						CHANNELS 3 Xrotation Yrotation Zrotation
						End Site
						{
							OFFSET 0.000000 6.719513 0.000000
						}
					}
				}
				JOINT HairE
				{
					OFFSET 5.915200 17.612701 -11.592200
					CHANNELS 3 Xrotation Yrotation Zrotation
					JOINT HairE1
					{
						OFFSET 0.289200 -7.171898 -1.284500
						CHANNELS 3 Xrotation Yrotation Zrotation
						End Site
						{
							OFFSET 0.000000 7.291756 0.000000
						}
					}
				}
				JOINT HairF
				{
					OFFSET -0.864800 17.612701 -11.592200
					CHANNELS 3 Xrotation Yrotation Zrotation
					JOINT HairF1
					{
						OFFSET 0.000000 -14.087097 -2.127501
						CHANNELS 3 Xrotation Yrotation Zrotation
						End Site
						{
							OFFSET 0.000000 14.246841 0.000000
						}
					}
				}
				JOINT HairG
				{
					OFFSET -8.087700 17.612701 -11.592200
					CHANNELS 3 Xrotation Yrotation Zrotation
					JOINT HairG1
					{
						OFFSET -0.293600 -6.081398 -0.910100
						CHANNELS 3 Xrotation Yrotation Zrotation
						End Site
						{
							OFFSET 0.000000 6.156120 0.000000
						}
					}
				}
			}
		}
	}
	JOINT Pouch
	{
		OFFSET 0.000000 4.394501 10.847300
		CHANNELS 3 Xrotation Yrotation Zrotation
		End Site
		{
			OFFSET 0.000000 21.880577 0.000000
		}
	}
	JOINT Bag
	{
		OFFSET -13.229000 4.813004 -0.593300
		CHANNELS 3 Xrotation Yrotation Zrotation
		End Site
		{
			OFFSET 0.000000 21.880577 0.000000
		}
	}
	JOINT OccupyGuyFacialAnim_Joint
	{
		OFFSET 1.000000 -70.206398 -1.655000
		CHANNELS 3 Xrotation Yrotation Zrotation
		End Site
		{
			OFFSET 0.000000 21.880577 0.000000
		}
	}
}
MOTION
Frames: 4
Frame Time: 0.033333
0.037321 49.149208 -110.711540 42.421653 22.445263 -17.233319 -0.000000 0.000001 0.000001 -115.109724 2.699696 -0.257295 68.897122 -0.306661 -3.237262 11.760164 -0.233403 -9.055659 0.000000 -0.000002 -0.000001 -0.000001 0.000000 -0.000000 -80.784663 -20.654227 7.571727 93.421121 -4.498104 -1.782364 -48.165811 6.990562 -16.719427 0.000000 -0.000001 -0.000000 0.000003 -0.000001 -0.000002 22.394826 6.549466 -1.956624 13.893837 1.004836 -1.145398 13.188738 1.043006 -1.104875 -9.448044 -6.990836 -2.176873 -70.832169 -38.597447 -6.618387 -0.000000 -0.000000 0.000000 -0.000000 -0.000000 0.000000 -0.000000 -0.000000 0.000001 -0.000000 -0.000000 0.000000 -0.000000 -0.000000 0.000000 -0.000000 -0.000000 0.000000 -0.000000 -0.000000 0.000000 -0.000000 -0.000000 0.000000 -0.000000 -0.000000 0.000000 -1.166090 -6.626410 24.160763 -2.190223 -12.858077 -83.510066 0.507591 -28.699963 -0.070898 -19.335009 -16.194435 -21.918087 -9.331542 3.471361 -7.771929 -3.526411 5.992582 -11.731732 -0.000001 -0.000002 0.000002 2.950637 -12.213435 7.303421 -0.001883 -0.013100 -14.886862 0.000002 -0.000001 -0.000000 -0.428351 -3.917226 -6.247954 -0.001111 -0.009771 -15.259800 0.000001 0.000001 -0.000001 3.582745 12.303595 -16.370790 -0.016402 -0.033073 -52.623510 0.000001 0.000000 -0.000002 0.000697 20.812469 -16.406961 -0.017078 -0.031980 -51.783858 0.000001 -0.000001 0.000001 0.000000 -0.000001 0.000000 1.281153 11.337929 -23.931856 -75.928542 -19.250156 34.274869 0.283817 69.170077 0.418179 55.476975 20.453572 -46.504832 -4.453604 -7.293484 20.381139 0.000582 -8.684428 0.000689 0.000000 -0.000001 0.000000 -0.000519 -0.006679 -8.932490 -0.000521 0.007233 6.265792 -0.000003 -0.000001 0.000004 -0.000041 0.002636 3.005850 -0.000332 0.004852 6.344397 -0.000000 -0.000002 0.000001 2.546342 -5.987564 23.063916 -0.002732 0.015385 21.773011 -0.000000 -0.000000 -0.000002 8.673212 -16.457462 33.264551 -0.008738 0.026283 37.071531 -0.000000 0.000003 -0.000003 0.000001 0.000003 0.000002 0.000000 0.000000 0.000000 0.000000 -0.000000 -0.000002 0.000000 0.000000 0.000000 0.000000 0.000000 0.000000 0.000000 0.000000 0.000000 0.000000 -0.000000 -0.000001 0.000000 0.000000 0.000000 0.000000 0.000000 0.000000 0.000000 0.000000 0.000000 0.000000 -0.000000 -0.000001 -0.000000 0.000001 0.000001 -0.000000 0.000001 0.000001 -0.000000 0.000001 0.000001 
-0.515787 49.560730 -114.127045 43.204734 23.398823 -18.691011 -0.000001 0.000002 -0.000000 -116.195602 -1.430830 -2.136144 81.454903 2.485852 -0.540718 4.875315 0.155755 -8.313351 0.000001 -0.000004 0.000000 0.000000 0.000000 0.000001 -86.236206 -19.616368 5.806223 92.731368 -5.005643 -1.260778 -43.899412 5.538609 -15.388245 -0.000000 -0.000001 -0.000000 -0.000002 -0.000000 -0.000001 22.918816 5.103888 -1.322733 14.218652 0.632200 -0.750147 13.507867 0.658943 -0.712902 -12.371565 -6.597301 -2.410520 -69.888736 -37.880024 -6.049347 0.000000 0.000000 0.000000 0.000000 0.000000 0.000000 0.000000 0.000000 0.000001 0.000000 0.000000 0.000000 0.000000 -0.000000 0.000000 0.000000 0.000000 0.000000 0.000000 -0.000000 0.000000 0.000000 0.000000 0.000000 0.000000 0.000000 0.000000 -1.161377 -6.578689 24.218995 -3.354191 -12.858368 -82.055038 0.404026 -28.333083 -0.414402 -19.162138 -16.699731 -21.236713 -9.331541 3.471366 -7.771925 -3.526407 5.992583 -11.731732 -0.000001 0.000002 0.000000 2.950634 -12.213429 7.303422 -0.001883 -0.013101 -14.886863 0.000000 0.000000 -0.000002 -0.428348 -3.917220 -6.247951 -0.001109 -0.009771 -15.259797 0.000005 -0.000001 0.000002 3.582747 12.303597 -16.370792 -0.016406 -0.033069 -52.623507 0.000001 0.000000 -0.000003 0.000696 20.812471 -16.406960 -0.017077 -0.031977 -51.783858 -0.000004 0.000000 0.000001 -0.000000 -0.000002 -0.000000 1.259036 11.283577 -23.740206 -76.202160 -19.327871 35.204858 -0.783059 69.100184 1.353735 55.298339 20.811463 -46.136374 -4.453603 -7.293484 20.381148 0.000582 -8.684426 0.000690 0.000000 -0.000001 -0.000001 -0.000519 -0.006677 -8.932489 -0.000519 0.007243 6.265791 -0.000001 -0.000002 -0.000000 -0.000041 0.002637 3.005854 -0.000333 0.004853 6.344392 0.000001 -0.000000 -0.000001 2.546344 -5.987563 23.063918 -0.002733 0.015382 21.773011 0.000001 -0.000001 -0.000002 8.673212 -16.457460 33.264548 -0.008742 0.026277 37.071528 -0.000000 0.000003 0.000003 0.000001 0.000002 0.000002 0.000000 -0.000000 -0.000004 0.000000 -0.000000 -0.000003 0.000000 -0.000000 -0.000002 0.000000 -0.000000 -0.000002 0.000000 -0.000000 -0.000004 0.000000 -0.000000 -0.000002 0.000000 -0.000000 -0.000002 0.000000 -0.000000 -0.000002 0.000000 -0.000000 -0.000004 0.000000 -0.000000 -0.000002 -0.000001 0.000002 -0.000000 -0.000001 0.000002 -0.000000 -0.000001 0.000002 -0.000000 
-1.026964 50.045525 -117.285934 44.582277 24.252405 -20.365032 -0.000000 -0.000000 -0.000001 -115.490234 -6.088935 -2.300512 92.346787 4.374206 1.036800 1.246388 0.273017 -9.385237 0.000001 0.000001 0.000000 0.000001 -0.000001 -0.000003 -91.072520 -17.967439 4.224359 91.070191 -5.645759 -0.624631 -39.788085 4.144928 -13.812706 0.000000 -0.000000 0.000000 0.000001 0.000000 -0.000001 23.181216 3.818611 -0.892600 14.407309 0.351275 -0.442124 13.693723 0.360436 -0.402310 -15.020491 -6.229838 -2.455828 -69.119971 -37.153780 -5.526534 0.000000 0.000000 -0.000000 0.000000 0.000000 -0.000000 0.000000 0.000000 0.000000 0.000000 0.000000 -0.000000 -0.000000 -0.000000 -0.000001 0.000000 0.000000 -0.000000 -0.000000 -0.000000 -0.000001 0.000000 0.000000 -0.000000 0.000000 0.000000 -0.000000 -1.158878 -6.545708 24.250547 -4.664649 -13.263660 -80.970130 0.110259 -28.073650 -0.798206 -19.070260 -17.016175 -20.897307 -9.331541 3.471360 -7.771930 -3.526404 5.992582 -11.731734 0.000000 0.000006 -0.000001 2.950634 -12.213434 7.303421 -0.001883 -0.013100 -14.886869 0.000001 0.000002 -0.000002 -0.428349 -3.917226 -6.247953 -0.001110 -0.009771 -15.259793 -0.000000 -0.000001 -0.000001 3.582746 12.303598 -16.370794 -0.016406 -0.033066 -52.623510 -0.000003 -0.000000 -0.000002 0.000698 20.812467 -16.406963 -0.017075 -0.031982 -51.783861 0.000001 0.000000 0.000001 -0.000002 -0.000004 0.000001 1.234521 11.127707 -23.548932 -76.665759 -19.307688 35.602351 -1.870084 68.993967 2.297847 55.251897 21.071856 -45.984324 -4.453606 -7.293483 20.381144 0.000583 -8.684418 0.000690 -0.000000 -0.000001 0.000000 -0.000520 -0.006682 -8.932496 -0.000522 0.007236 6.265793 -0.000000 -0.000003 0.000005 -0.000042 0.002631 3.005851 -0.000331 0.004855 6.344396 0.000001 0.000004 -0.000000 2.546341 -5.987566 23.063916 -0.002733 0.015382 21.773009 -0.000001 0.000002 -0.000002 8.673209 -16.457464 33.264548 -0.008739 0.026283 37.071531 -0.000001 0.000003 -0.000001 0.000002 -0.000002 -0.000002 -0.000000 0.000000 0.000001 -0.000000 -0.000000 -0.000001 -0.000000 0.000000 -0.000001 -0.000000 0.000000 -0.000001 -0.000000 0.000000 0.000001 -0.000000 -0.000000 -0.000001 -0.000000 0.000000 -0.000001 -0.000000 0.000000 -0.000001 -0.000000 0.000000 0.000001 -0.000000 -0.000000 -0.000001 -0.000000 -0.000000 -0.000001 -0.000000 -0.000000 -0.000001 -0.000000 -0.000000 -0.000001 
-1.477564 50.519115 -120.253235 46.299288 24.981151 -21.993397 -0.000000 0.000001 0.000000 -112.055995 -10.416733 -0.751682 103.308401 8.693162 0.427510 -10.011797 0.257304 -3.555817 -0.000001 -0.000001 -0.000001 -0.000002 0.000002 0.000001 -95.337187 -15.860519 2.835536 88.900977 -6.337485 -0.097046 -35.876907 2.802275 -12.126690 0.000000 -0.000002 -0.000000 -0.000002 -0.000002 0.000000 23.210796 2.812973 -0.725917 14.477764 0.203042 -0.237796 13.764996 0.192742 -0.187589 -17.188116 -5.950728 -2.404484 -68.540750 -36.506272 -5.150861 -0.000000 0.000000 0.000000 -0.000000 0.000000 0.000000 -0.000000 0.000000 0.000001 -0.000000 0.000000 0.000000 -0.000001 0.000000 -0.000000 -0.000000 0.000000 0.000000 -0.000001 0.000000 -0.000000 -0.000000 0.000000 0.000000 -0.000000 0.000000 0.000000 -1.156943 -6.585013 24.274434 -5.962853 -14.026357 -80.292214 -0.582675 -28.043918 -1.332007 -19.075074 -17.071042 -20.936960 -9.331535 3.471358 -7.771925 -3.526406 5.992587 -11.731732 -0.000001 0.000002 0.000002 2.950636 -12.213434 7.303421 -0.001884 -0.013100 -14.886863 0.000001 -0.000002 -0.000000 -0.428348 -3.917227 -6.247953 -0.001111 -0.009774 -15.259797 -0.000000 -0.000001 0.000004 3.582745 12.303592 -16.370787 -0.016404 -0.033068 -52.623510 -0.000002 -0.000001 0.000001 0.000701 20.812459 -16.406963 -0.017080 -0.031971 -51.783854 -0.000002 -0.000001 0.000003 0.000001 0.000001 -0.000001 1.213511 10.838529 -23.421735 -77.257929 -19.223733 35.422485 -3.020961 68.915202 3.295610 55.419243 21.145463 -46.217694 -4.453604 -7.293484 20.381143 0.000582 -8.684422 0.000689 0.000000 0.000002 0.000001 -0.000518 -0.006683 -8.932489 -0.000520 0.007238 6.265799 -0.000000 0.000001 -0.000001 -0.000041 0.002633 3.005854 -0.000329 0.004850 6.344394 -0.000000 -0.000000 -0.000001 2.546344 -5.987565 23.063915 -0.002733 0.015375 21.773011 -0.000002 -0.000003 -0.000000 8.673212 -16.457457 33.264548 -0.008739 0.026285 37.071528 -0.000002 0.000004 0.000003 -0.000001 -0.000001 0.000001 0.000000 0.000000 0.000004 0.000000 0.000000 0.000001 0.000000 0.000000 0.000003 0.000000 0.000000 0.000003 0.000000 0.000000 0.000004 0.000000 0.000000 0.000001 0.000000 0.000000 0.000003 0.000000 0.000000 0.000003 0.000000 0.000000 0.000004 0.000000 0.000000 0.000001 -0.000000 0.000001 0.000000 -0.000000 0.000001 0.000000 -0.000000 0.000001 0.000000 
